<?xml version="1.0" encoding="UTF-8"?>
<svg id="Calque_1" xmlns="http://www.w3.org/2000/svg" version="1.1" viewBox="0 0 81.52 81.52">
  <!-- Generator: Adobe Illustrator 29.5.0, SVG Export Plug-In . SVG Version: 2.1.0 Build 137)  -->
  <defs>
    <style>
      .st0 {
        fill: #fff;
      }
    </style>
  </defs>
  <path d="M58.42,32.42c-2.16,2.02-4.35,4.04-6.54,6.04-4.77,10.26-8.3,21.69-13.24,31.8-2.96,6.06-9.06,10.61-15.9,11.17-23.35,1.92-31.65-29.01-10.82-38.85,10.08-4.76,21.15-8.32,31.3-13.03,8.25-8.57,15.83-17.91,24.21-26.35,1.37-1.38,2.49-2.78,4.55-3.12,5.81-.97,12.23,6.82,8.4,11.99-.41.55-1.26,1.28-1.79,1.8-6.42,6.32-13.54,12.38-20.15,18.54ZM70.4,18.05c2.62-2.45,5.33-4.82,7.93-7.28,2.27-2.87-.84-7.04-3.73-8.03-2.36-.81-3.19-.19-4.79,1.42-5.04,5.07-11.08,11.46-15.69,16.9-.22.25-1.09,1.33-1.06,1.53l6.06,5.88c3.87-3.35,7.55-6.93,11.28-10.42ZM50.32,35.29c.22.21.28.7.68.62l6.11-5.66-5.85-6.07-5.6,6.39.19.45c1.57,1.34,2.97,2.86,4.47,4.27ZM43.47,32.08l-31.07,12.9c-7.99,3.91-11.41,12.31-9.42,20.89l1.72-3.18c5.4-9.43,12.99-14.32,21.87-20.06,5.57-3.6,11.46-6.78,16.9-10.54ZM45.62,34c-.84.24-1.7.81-2.47,1.24-10.06,5.72-27.13,15.53-33.81,24.65-1.3,1.77-4.49,6.8-4.89,8.78-.28,1.39,1.42,2.9,2.11,4.02l39.06-38.7ZM47.54,35.92L8.83,74.97c2.6,2.06,2.78,2.28,5.81,1,10.2-4.3,15.52-12.46,21.36-21.29,3.54-5.35,7.19-11.11,10.45-16.63.39-.67.95-1.38,1.1-2.14ZM15.43,78.57c8.27,1.93,16.98-1.18,20.89-8.94,4.65-9.22,7.74-20.04,12.29-29.41l.6-1.91-13.5,21.12c-4.69,6.85-8.79,12.41-16.13,16.69-1.18.69-2.75,1.2-3.84,1.91-.23.15-.43-.03-.31.54Z"/>
  <path class="st0" d="M45.62,34L6.56,72.7c-.68-1.12-2.39-2.64-2.11-4.02.4-1.98,3.59-7.01,4.89-8.78,6.68-9.13,23.76-18.93,33.81-24.65.77-.44,1.63-1.01,2.47-1.24Z"/>
  <path class="st0" d="M70.4,18.05c-3.73,3.49-7.4,7.07-11.28,10.42l-6.06-5.88c-.03-.2.84-1.27,1.06-1.53,4.61-5.43,10.65-11.82,15.69-16.9,1.6-1.61,2.43-2.23,4.79-1.42,2.89.99,5.99,5.15,3.73,8.03-2.61,2.46-5.32,4.83-7.93,7.28Z"/>
  <path class="st0" d="M47.54,35.92c-.15.75-.7,1.47-1.1,2.14-3.26,5.52-6.91,11.28-10.45,16.63-5.84,8.83-11.16,16.99-21.36,21.29-3.03,1.28-3.21,1.05-5.81-1l38.71-39.05Z"/>
  <path class="st0" d="M15.43,78.57c-.12-.56.08-.38.31-.54,1.09-.71,2.65-1.22,3.84-1.91,7.34-4.28,11.44-9.84,16.13-16.69l13.5-21.12-.6,1.91c-4.55,9.36-7.64,20.18-12.29,29.41-3.91,7.75-12.62,10.87-20.89,8.94Z"/>
  <path class="st0" d="M43.47,32.08c-5.44,3.76-11.33,6.93-16.9,10.54-8.88,5.74-16.47,10.63-21.87,20.06l-1.72,3.18c-1.99-8.58,1.43-16.98,9.42-20.89l31.07-12.9Z"/>
  <path class="st0" d="M50.32,35.29c-1.51-1.41-2.9-2.93-4.47-4.27l-.19-.45,5.6-6.39,5.85,6.07-6.11,5.66c-.4.09-.46-.41-.68-.62Z"/>
</svg>